<?xml version="1.0" encoding="UTF-8" standalone="no" ?>
<!DOCTYPE svg PUBLIC "-//W3C//DTD SVG 1.1//EN" "http://www.w3.org/Graphics/SVG/1.1/DTD/svg11.dtd">
<svg xmlns="http://www.w3.org/2000/svg" xmlns:xlink="http://www.w3.org/1999/xlink" version="1.1" width="1280" height="720" viewBox="0 0 1280 720" xml:space="preserve">
<desc>Created with Fabric.js 5.2.4</desc>
<defs>
</defs>
<rect x="0" y="0" width="100%" height="100%" fill="transparent"></rect>
<g transform="matrix(1 0 0 1 640 360)" id="f0c585f5-58bb-4b56-8c16-f49c36ca98a1"  >
<rect style="stroke: none; stroke-width: 1; stroke-dasharray: none; stroke-linecap: butt; stroke-dashoffset: 0; stroke-linejoin: miter; stroke-miterlimit: 4; fill: rgb(255,255,255); fill-rule: nonzero; opacity: 1; visibility: hidden;" vector-effect="non-scaling-stroke"  x="-640" y="-360" rx="0" ry="0" width="1280" height="720" />
</g>
<g transform="matrix(Infinity NaN NaN Infinity 0 0)" id="d4022553-20c0-49a2-b2e0-137d37bfaa6e"  >
</g>
<g transform="matrix(1.39 0 0 1.39 440.81 360)"  >
<circle style="stroke: none; stroke-width: 1; stroke-dasharray: none; stroke-linecap: butt; stroke-dashoffset: 0; stroke-linejoin: miter; stroke-miterlimit: 4; fill: rgb(24,150,164); fill-rule: nonzero; opacity: 1;" vector-effect="non-scaling-stroke"  cx="0" cy="0" r="54" />
</g>
<g transform="matrix(1.39 0 0 1.39 652.49 360)"  >
<path style="stroke: none; stroke-width: 1; stroke-dasharray: none; stroke-linecap: butt; stroke-dashoffset: 0; stroke-linejoin: miter; stroke-miterlimit: 4; fill: rgb(0,0,0); fill-rule: nonzero; opacity: 1;" vector-effect="non-scaling-stroke"  transform=" translate(-210, -57)" d="M 64.08 73.88 C 62.019999999999996 74.69999999999999 59.79 75.17 57.44 75.17 C 47.559999999999995 75.17 39.55 67.16 39.55 57.28 C 39.55 56.550000000000004 39.61 55.83 39.69 55.120000000000005 L 21.669999999999998 52.190000000000005 C 21.453557187337093 53.784251591454485 21.343314225273403 55.391126280928376 21.340000000000007 57.000000000000014 C 21.34 76.88000000000001 37.46 93 57.34 93 C 64.31 93 70.81 91.01 76.32000000000001 87.58 L 64.08000000000001 73.88 z M 74.27 51.17999999999999 L 50.33 56.459999999999994 L 92.38 65.19999999999999 C 92.99 62.569999999999986 93.33 59.819999999999986 93.33 56.999999999999986 C 93.33 37.11999999999999 77.21 20.999999999999986 57.33 20.999999999999986 C 49.349999999999994 20.999999999999986 41.989999999999995 23.599999999999987 36.019999999999996 27.989999999999988 L 48.459999999999994 41.80999999999999 C 51.184058795846994 40.21603526486195 54.28386118853702 39.37722459512512 57.43999999999998 39.37999999999999 C 65.17999999999999 39.37999999999999 71.78 44.29999999999999 74.27 51.17999999999999 M 139.56 19.98999999999999 L 139.56 94.00999999999999 L 157.5 94.00999999999999 L 157.5 52.58 L 172.91 81.88 L 182.26 81.88 L 198.43 52.58 L 198.43 94.00999999999999 L 216.11 94.00999999999999 L 216.11 19.99 L 198.43 19.99 L 177.84 57.36 L 158.26 19.990000000000002 z M 228.07999999999998 19.98999999999999 L 281.03999999999996 19.98999999999999 L 281.03999999999996 35.14999999999999 L 245.41999999999996 35.14999999999999 L 245.41999999999996 48.6 L 276.10999999999996 48.6 L 276.10999999999996 63.09 L 245.50999999999996 63.09 L 245.50999999999996 77.87 L 281.89 77.87 L 281.89 94.01 L 228.07999999999998 94.01 z M 287.61 19.98999999999999 L 305.28000000000003 19.98999999999999 L 329.66 70.63999999999999 L 335.97 57 L 318.54 19.990000000000002 L 335.22 19.990000000000002 L 343.05 35.910000000000004 L 349.11 19.990000000000002 L 368.31 19.990000000000002 L 353.15 57.36 L 359.71999999999997 70.64 L 379.04999999999995 19.990000000000002 L 398.66999999999996 19.990000000000002 L 367.80999999999995 94.00999999999999 L 353.28 94.00999999999999 L 345.07 76.07 L 337.99 94.00999999999999 L 322.97 94.00999999999999 z" stroke-linecap="round" />
</g>
</svg>