<?xml version="1.0" standalone="no"?>
<!DOCTYPE svg PUBLIC "-//W3C//DTD SVG 1.0//EN" "http://www.w3.org/TR/2001/REC-SVG-20010904/DTD/svg10.dtd">
<svg xmlns="http://www.w3.org/2000/svg" xmlns:xlink="http://www.w3.org/1999/xlink" id="body_1" width="1280" height="720">

<g transform="matrix(1 0 0 1 0 0)">
    <path d="M0 0L1280 0L1280 720L0 720z" stroke="none" fill="#FFFFFF" fill-rule="nonzero" fill-opacity="0" />
	<g transform="matrix(1 0 0 1 640 360)">
	</g>
	<g transform="matrix(NaN NaN NaN NaN 0 0)">
	</g>
	<g transform="matrix(1.39 0 0 1.39 440.81 360)">
        <path d="M54 0C 54 14.911689 48.72792 27.63961 38.183765 38.183765C 27.63961 48.72792 14.911689 54 0 54C -14.911689 54 -27.63961 48.72792 -38.183765 38.183765C -48.72792 27.63961 -54 14.911689 -54 0C -54 -14.911689 -48.72792 -27.63961 -38.183765 -38.183765C -27.63961 -48.72792 -14.911689 -54 0 -54C 14.911689 -54 27.63961 -48.72792 38.183765 -38.183765C 48.72792 -27.63961 54 -14.911689 54 0C 54 0.6283824 53.989037 1.2565733 53.967106 1.8845727" stroke="none" fill="#1896A4" fill-rule="nonzero" />
	</g>
	<g transform="matrix(1.39 0 0 1.39 652.49 360)">
        <path transform="matrix(1 0 0 1 -210 -57)"  d="M64.08 73.88C 62.02 74.7 59.79 75.17 57.44 75.17C 47.56 75.17 39.55 67.16 39.55 57.28C 39.55 56.55 39.61 55.83 39.69 55.12L39.69 55.12L21.67 52.19C 21.453558 53.784252 21.343315 55.391125 21.34 57C 21.34 76.88 37.46 93 57.34 93C 64.31 93 70.81 91.01 76.32 87.58L76.32 87.58L64.08 73.88zM74.27 51.18L50.33 56.46L92.38 65.2C 92.99 62.57 93.33 59.82 93.33 57C 93.33 37.12 77.21 21 57.33 21C 49.35 21 41.99 23.6 36.02 27.99L36.02 27.99L48.46 41.81C 51.18406 40.216034 54.283863 39.377224 57.44 39.38C 65.18 39.38 71.78 44.3 74.27 51.18zM139.56 19.99L139.56 94.01L157.5 94.01L157.5 52.58L172.91 81.88L182.26 81.88L198.43 52.58L198.43 94.01L216.11 94.01L216.11 19.99L198.43 19.99L177.84 57.36L158.26 19.99zM228.08 19.99L281.04 19.99L281.04 35.15L245.42 35.15L245.42 48.6L276.11 48.6L276.11 63.09L245.51 63.09L245.51 77.87L281.89 77.87L281.89 94.01L228.08 94.01zM287.61 19.99L305.28 19.99L329.66 70.64L335.97 57L318.54 19.99L335.22 19.99L343.05 35.91L349.11 19.99L368.31 19.99L353.15 57.36L359.72 70.64L379.05 19.99L398.67 19.99L367.81 94.01L353.28 94.01L345.07 76.07L337.99 94.01L322.97 94.01z" stroke="none" fill="#000000" fill-rule="nonzero" />
	</g>
</g>
</svg>